name Walk5.mot
datacolumns 19
datarows 22
range 1.90000000 2.00500000
endheader

                time	   L_ground_force_vx	   L_ground_force_vy	   L_ground_force_vz	   L_ground_force_px	   L_ground_force_py	   L_ground_force_pz	   R_ground_force_vx	   R_ground_force_vy	   R_ground_force_vz	   R_ground_force_px	   R_ground_force_py	   R_ground_force_pz	   L_ground_torque_x	   L_ground_torque_y	   L_ground_torque_z	   R_ground_torque_x	   R_ground_torque_y	   R_ground_torque_z	
          1.90000000	          0.04592093	          0.16613551	         -0.00742438	         -0.00034155	          0.00000000	         -0.00006872	        -24.50641598	        472.31620419	        -24.14885670	          0.23874201	          0.00000000	          0.05245157	          0.00000000	         -0.00005217	          0.00000000	          0.00000000	          1.59894538	          0.00000000	
          1.90500000	          0.03464875	          0.12798412	         -0.00585425	         -0.00034914	          0.00000000	         -0.00007162	        -23.01550272	        468.05771052	        -23.00447992	          0.24150743	          0.00000000	          0.05204045	          0.00000000	          0.00006417	          0.00000000	          0.00000000	          1.63088362	          0.00000000	
          1.91000000	          0.02467983	          0.09339638	         -0.00438435	         -0.00032640	          0.00000000	         -0.00006782	        -21.58308246	        464.60905017	        -21.94308224	          0.24429673	          0.00000000	          0.05162804	          0.00000000	          0.00013370	          0.00000000	          0.00000000	          1.65861875	          0.00000000	
          1.91500000	          0.01633507	          0.06382940	         -0.00309499	         -0.00028600	          0.00000000	         -0.00006001	        -20.22611678	        461.98455350	        -20.97578003	          0.24709931	          0.00000000	          0.05121696	          0.00000000	          0.00016771	          0.00000000	          0.00000000	          1.68118727	          0.00000000	
          1.92000000	          0.00969183	          0.03982054	         -0.00202337	         -0.00023747	          0.00000000	         -0.00005026	        -18.96061107	        460.17059256	        -20.11078301	          0.24990353	          0.00000000	          0.05080824	          0.00000000	          0.00017626	          0.00000000	          0.00000000	          1.69817347	          0.00000000	
          1.92500000	          0.00466515	          0.02127480	         -0.00117614	         -0.00018757	          0.00000000	         -0.00004004	        -17.80121854	        459.12487218	        -19.35152861	          0.25270008	          0.00000000	          0.05040272	          0.00000000	          0.00016781	          0.00000000	          0.00000000	          1.70955362	          0.00000000	
          1.93000000	          0.00107267	          0.00769920	         -0.00053980	         -0.00014074	          0.00000000	         -0.00003031	        -16.76153475	        458.77940583	        -18.69627728	          0.25548241	          0.00000000	          0.05000228	          0.00000000	          0.00014911	          0.00000000	          0.00000000	          1.71520477	          0.00000000	
          1.93500000	         -0.00131594	         -0.00161549	         -0.00008905	         -0.00009957	          0.00000000	         -0.00002168	        -15.85277122	        459.04434376	        -18.13884761	          0.25824580	          0.00000000	          0.04960852	          0.00000000	          0.00012533	          0.00000000	          0.00000000	          1.71507708	          0.00000000	
          1.94000000	         -0.00274364	         -0.00746105	          0.00020706	         -0.00006530	          0.00000000	         -0.00001443	        -15.08222386	        459.81363180	        -17.66988523	          0.26098800	          0.00000000	          0.04922169	          0.00000000	          0.00010017	          0.00000000	          0.00000000	          1.70923184	          0.00000000	
          1.94500000	         -0.00344221	         -0.01061962	          0.00038057	         -0.00003816	          0.00000000	         -0.00000863	        -14.45125148	        460.97056298	        -17.27846503	          0.26370889	          0.00000000	          0.04884034	          0.00000000	          0.00007611	          0.00000000	          0.00000000	          1.69780569	          0.00000000	
          1.95000000	         -0.00361795	         -0.01180526	          0.00046174	         -0.00001773	          0.00000000	         -0.00000424	        -13.95302217	        462.39410580	        -16.95395264	          0.26641025	          0.00000000	          0.04846141	          0.00000000	          0.00005466	          0.00000000	          0.00000000	          1.68097631	          0.00000000	
          1.95500000	         -0.00344451	         -0.01163194	          0.00047728	         -0.00000323	          0.00000000	         -0.00000108	        -13.57129807	        463.96930730	        -16.68782392	          0.26909610	          0.00000000	          0.04808336	          0.00000000	          0.00003658	          0.00000000	          0.00000000	          1.65886099	          0.00000000	
          1.96000000	         -0.00306087	         -0.01060084	          0.00044949	          0.00000632	          0.00000000	          0.00000103	        -13.28020893	        465.59430654	        -16.47415531	          0.27176967	          0.00000000	          0.04770737	          0.00000000	          0.00002210	          0.00000000	          0.00000000	          1.63151982	          0.00000000	
          1.96500000	         -0.00257277	         -0.00910122	          0.00039613	          0.00001195	          0.00000000	          0.00000230	        -13.04528596	        467.18396322	        -16.30995081	          0.27443225	          0.00000000	          0.04733575	          0.00000000	          0.00001106	          0.00000000	          0.00000000	          1.59870914	          0.00000000	
          1.97000000	         -0.00205629	         -0.00741975	          0.00033057	          0.00001461	          0.00000000	          0.00000293	        -12.82537033	        468.67209442	        -16.19625496	          0.27708121	          0.00000000	          0.04696909	          0.00000000	          0.00000311	          0.00000000	          0.00000000	          1.55992309	          0.00000000	
          1.97500000	         -0.00156245	         -0.00575464	          0.00026239	          0.00001516	          0.00000000	          0.00000310	        -12.57516758	        470.01385039	        -16.13857382	          0.27971024	          0.00000000	          0.04660774	          0.00000000	         -0.00000224	          0.00000000	          0.00000000	          1.51457306	          0.00000000	
          1.98000000	         -0.00112219	         -0.00423172	          0.00019792	          0.00001432	          0.00000000	          0.00000297	        -12.24752786	        471.18515109	        -16.14615838	          0.28231129	          0.00000000	          0.04625174	          0.00000000	         -0.00000549	          0.00000000	          0.00000000	          1.46234679	          0.00000000	
          1.98500000	         -0.00075111	         -0.00292042	          0.00014092	          0.00001265	          0.00000000	          0.00000265	        -11.79564913	        472.17998499	        -16.22991613	          0.28487726	          0.00000000	          0.04590055	          0.00000000	         -0.00000714	          0.00000000	          0.00000000	          1.40302982	          0.00000000	
          1.99000000	         -0.00045374	         -0.00184854	          0.00009322	          0.00001057	          0.00000000	          0.00000224	        -11.17562641	        473.00740888	        -16.40025854	          0.28740157	          0.00000000	          0.04555328	          0.00000000	         -0.00000763	          0.00000000	          0.00000000	          1.33602763	          0.00000000	
          1.99500000	         -0.00022715	         -0.00101496	          0.00005526	          0.00000841	          0.00000000	          0.00000179	        -10.34809077	        473.68749005	        -16.66395227	          0.28987629	          0.00000000	          0.04520742	          0.00000000	         -0.00000735	          0.00000000	          0.00000000	          1.26069296	          0.00000000	
          2.00000000	         -0.00006388	         -0.00040014	          0.00002655	          0.00000635	          0.00000000	          0.00000137	         -9.27873606	        474.24868101	        -17.02043514	          0.29229085	          0.00000000	          0.04486041	          0.00000000	         -0.00000658	          0.00000000	          0.00000000	          1.17669652	          0.00000000	
          2.00500000	          0.00004587	          0.00002578	          0.00000603	          0.00000453	          0.00000000	          0.00000099	         -7.93805622	        474.72403767	        -17.45876212	          0.29463287	          0.00000000	          0.04451106	          0.00000000	         -0.00000557	          0.00000000	          0.00000000	          1.08397581	          0.00000000	
